<svg width="336" height="90" viewBox="0 0 336 90" fill="none" xmlns="http://www.w3.org/2000/svg">
<path d="M126.106 44.7703C123.669 44.7703 121.397 44.3661 119.291 43.5576C117.215 42.718 115.409 41.5363 113.875 40.0126C112.34 38.4889 111.136 36.7009 110.264 34.6486C109.421 32.5962 109 30.3418 109 27.8852C109 25.4286 109.421 23.1741 110.264 21.1218C111.136 19.0694 112.34 17.2814 113.875 15.7577C115.439 14.234 117.26 13.0679 119.336 12.2594C121.412 11.4198 123.684 11 126.151 11C128.889 11 131.357 11.4975 133.553 12.4926C135.78 13.4566 137.646 14.887 139.15 16.7839L134.456 21.2617C133.373 19.9868 132.169 19.0383 130.845 18.4164C129.521 17.7634 128.077 17.4369 126.512 17.4369C125.038 17.4369 123.684 17.6857 122.45 18.1832C121.216 18.6807 120.148 19.3959 119.246 20.3288C118.343 21.2617 117.636 22.3656 117.124 23.6406C116.643 24.9155 116.402 26.3304 116.402 27.8852C116.402 29.44 116.643 30.8548 117.124 32.1298C117.636 33.4047 118.343 34.5086 119.246 35.4415C120.148 36.3744 121.216 37.0896 122.45 37.5871C123.684 38.0847 125.038 38.3334 126.512 38.3334C128.077 38.3334 129.521 38.0225 130.845 37.4006C132.169 36.7475 133.373 35.768 134.456 34.462L139.15 38.9398C137.646 40.8367 135.78 42.2826 133.553 43.2777C131.357 44.2728 128.874 44.7703 126.106 44.7703Z" fill="white"/>
<path d="M149.211 24.7133H164.422V30.5905H149.211V24.7133ZM149.753 38.1468H166.949V44.2106H142.486V11.5597H166.362V17.6234H149.753V38.1468Z" fill="white"/>
<path d="M171.188 44.2106V11.5597H177.236L195.877 35.0683H192.943V11.5597H200.164V44.2106H194.161L175.476 20.7019H178.409V44.2106H171.188Z" fill="white"/>
<path d="M212.618 44.2106V17.7167H202.507V11.5597H230.04V17.7167H219.929V44.2106H212.618Z" fill="white"/>
<path d="M226.65 44.2106L240.733 11.5597H247.954L262.081 44.2106H254.408L242.854 15.3845H245.742L234.143 44.2106H226.65ZM233.691 37.2139L235.632 31.4767H251.881L253.867 37.2139H233.691Z" fill="white"/>
<path d="M277.152 44.7703C272.669 44.7703 269.163 43.4798 266.636 40.8988C264.108 38.3179 262.844 34.633 262.844 29.8442V11.5597H270.156V29.5643C270.156 32.6739 270.773 34.9128 272.007 36.2811C273.241 37.6493 274.971 38.3334 277.197 38.3334C279.424 38.3334 281.154 37.6493 282.388 36.2811C283.622 34.9128 284.238 32.6739 284.238 29.5643V11.5597H291.46V29.8442C291.46 34.633 290.196 38.3179 287.669 40.8988C285.141 43.4798 281.636 44.7703 277.152 44.7703Z" fill="white"/>
<path d="M297.098 44.2106V11.5597H310.774C313.602 11.5597 316.039 12.0417 318.085 13.0057C320.132 13.9385 321.711 15.2912 322.825 17.0637C323.938 18.8362 324.495 20.9507 324.495 23.4073C324.495 25.8328 323.938 27.9318 322.825 29.7042C321.711 31.4456 320.132 32.7828 318.085 33.7156C316.039 34.6485 313.602 35.115 310.774 35.115H301.16L304.41 31.8032V44.2106H297.098ZM317.183 44.2106L309.284 32.363H317.093L325.081 44.2106H317.183ZM304.41 32.6428L301.16 29.0979H310.367C312.624 29.0979 314.309 28.6003 315.423 27.6053C316.536 26.5791 317.093 25.1798 317.093 23.4073C317.093 21.6037 316.536 20.2044 315.423 19.2093C314.309 18.2142 312.624 17.7167 310.367 17.7167H301.16L304.41 14.1251V32.6428Z" fill="white"/>
<path d="M328.688 44.2106V11.5597H336V44.2106H328.688Z" fill="white"/>
<path d="M137.181 77.7943V45.1434H150.856C153.685 45.1434 156.122 45.6254 158.168 46.5894C160.214 47.5223 161.794 48.875 162.907 50.6474C164.021 52.4199 164.577 54.5344 164.577 56.991C164.577 59.4165 164.021 61.5155 162.907 63.288C161.794 65.0294 160.214 66.3665 158.168 67.2994C156.122 68.2323 153.685 68.6987 150.856 68.6987H141.243L144.492 65.387V77.7943H137.181ZM157.266 77.7943L149.367 65.9467H157.175L165.164 77.7943H157.266ZM144.492 66.2266L141.243 62.6816H150.45C152.707 62.6816 154.392 62.1841 155.505 61.189C156.619 60.1628 157.175 58.7635 157.175 56.991C157.175 55.1875 156.619 53.7881 155.505 52.7931C154.392 51.798 152.707 51.3005 150.45 51.3005H141.243L144.492 47.7089V66.2266Z" fill="white"/>
<path d="M164.619 77.7943L178.701 45.1434H185.922L200.049 77.7943H192.376L180.822 48.9682H183.711L172.111 77.7943H164.619ZM171.66 70.7977L173.6 65.0605H189.849L191.835 70.7977H171.66Z" fill="white"/>
<path d="M216.429 78.3541C213.992 78.3541 211.72 77.9498 209.614 77.1413C207.538 76.3017 205.732 75.1201 204.198 73.5964C202.663 72.0727 201.46 70.2846 200.587 68.2323C199.744 66.18 199.323 63.9255 199.323 61.4689C199.323 59.0123 199.744 56.7578 200.587 54.7055C201.46 52.6532 202.663 50.8651 204.198 49.3414C205.762 47.8177 207.583 46.6516 209.659 45.8431C211.735 45.0035 214.007 44.5837 216.474 44.5837C219.213 44.5837 221.68 45.0813 223.877 46.0764C226.103 47.0403 227.969 48.4707 229.473 50.3676L224.779 54.8454C223.696 53.5705 222.492 52.6221 221.168 52.0001C219.845 51.3471 218.4 51.0206 216.836 51.0206C215.361 51.0206 214.007 51.2694 212.773 51.7669C211.54 52.2645 210.472 52.9797 209.569 53.9126C208.666 54.8454 207.959 55.9494 207.448 57.2243C206.966 58.4992 206.725 59.9141 206.725 61.4689C206.725 63.0237 206.966 64.4386 207.448 65.7135C207.959 66.9885 208.666 68.0924 209.569 69.0252C210.472 69.9581 211.54 70.6733 212.773 71.1709C214.007 71.6684 215.361 71.9172 216.836 71.9172C218.4 71.9172 219.845 71.6062 221.168 70.9843C222.492 70.3313 223.696 69.3518 224.779 68.0457L229.473 72.5236C227.969 74.4204 226.103 75.8664 223.877 76.8615C221.68 77.8565 219.198 78.3541 216.429 78.3541Z" fill="white"/>
<path d="M232.809 77.7943V45.1434H240.121V77.7943H232.809Z" fill="white"/>
<path d="M246.03 77.7943V45.1434H252.078L270.719 68.6521H267.785V45.1434H275.006V77.7943H269.003L250.318 54.2857H253.251V77.7943H246.03Z" fill="white"/>
<path d="M296.171 78.3541C293.673 78.3541 291.371 77.9498 289.265 77.1413C287.189 76.3017 285.368 75.1201 283.804 73.5964C282.269 72.0727 281.066 70.2846 280.193 68.2323C279.35 66.18 278.929 63.9255 278.929 61.4689C278.929 59.0123 279.35 56.7578 280.193 54.7055C281.066 52.6532 282.284 50.8651 283.849 49.3414C285.414 47.8177 287.249 46.6516 289.355 45.8431C291.462 45.0035 293.778 44.5837 296.306 44.5837C299.104 44.5837 301.617 45.0657 303.844 46.0297C306.1 46.9937 307.996 48.393 309.531 50.2277L304.837 54.7055C303.693 53.4617 302.444 52.5443 301.09 51.9535C299.736 51.3316 298.262 51.0206 296.667 51.0206C295.133 51.0206 293.733 51.2694 292.47 51.7669C291.206 52.2645 290.108 52.9797 289.175 53.9126C288.272 54.8454 287.565 55.9494 287.053 57.2243C286.572 58.4992 286.331 59.9141 286.331 61.4689C286.331 62.9926 286.572 64.3919 287.053 65.6669C287.565 66.9418 288.272 68.0613 289.175 69.0252C290.108 69.9581 291.191 70.6733 292.424 71.1709C293.688 71.6684 295.072 71.9172 296.577 71.9172C298.021 71.9172 299.42 71.684 300.774 71.2175C302.159 70.72 303.498 69.8959 304.791 68.7454L308.944 74.2027C307.229 75.5399 305.228 76.566 302.941 77.2812C300.684 77.9965 298.427 78.3541 296.171 78.3541ZM302.264 73.2232V60.9558H308.944V74.2027L302.264 73.2232Z" fill="white"/>
<path d="M43.0264 9.53975e-07C41.8439 0.000513346 40.6619 0.0508048 39.4834 0.150747C47.0082 1.69381 53.782 5.88531 58.65 12.0107C63.518 18.136 66.1788 25.816 66.1788 33.7412C66.1787 39.165 64.9316 44.5112 62.5402 49.3397C60.1488 54.1681 56.6814 58.3407 52.4235 61.5139C46.6279 66.6306 39.3472 69.4293 31.832 69.4293C26.0931 69.4294 20.4574 67.7965 15.5034 64.6982C10.5493 61.5999 6.45526 57.1477 3.64124 51.7985H0C1.57249 62.4316 6.7786 72.131 14.675 79.139C22.5714 86.147 32.6357 90.0001 43.0443 90C48.7626 90 54.4248 88.836 59.7078 86.5744C64.9908 84.3129 69.791 80.9982 73.8344 76.8195C77.8778 72.6409 81.0852 67.6801 83.2734 62.2204C85.4616 56.7607 86.5879 50.9091 86.5878 44.9996C86.5877 33.065 82.0001 21.6192 73.8341 13.1802C65.6681 4.74113 54.5927 9.29029e-05 43.0443 9.53975e-07C43.0383 -3.17992e-07 43.0323 -3.17992e-07 43.0264 9.53975e-07Z" fill="#050C9C"/>
<path d="M41.5825 0C40.7564 0.000131128 39.9305 0.0254017 39.1059 0.0757759C46.7124 1.54108 53.5831 5.70907 58.5276 11.8576C63.4721 18.0061 66.1788 25.7478 66.1788 33.7412C66.1788 39.165 64.9317 44.5112 62.5402 49.3396C60.1488 54.1681 56.6814 58.3407 52.4236 61.5139C46.6279 66.6306 39.3472 69.4293 31.832 69.4293C26.0931 69.4294 20.4575 67.7965 15.5034 64.6982C10.5494 61.5999 6.45529 57.1477 3.64127 51.7985H0.275391C2.14136 61.7046 7.28301 70.6317 14.8192 77.0499C22.3554 83.4682 31.817 86.978 41.5825 86.9778C52.7433 86.9778 63.4469 82.3959 71.3387 74.2401C79.2306 66.0844 83.6642 55.0229 83.6643 43.4889C83.6642 31.955 79.2306 20.8934 71.3387 12.7377C63.4469 4.58194 52.7433 6.34888e-05 41.5825 0Z" fill="#3572EF"/>
<path d="M40.6963 0.424805C47.9526 2.20694 54.4151 6.46496 59.0391 12.5106C63.6632 18.5562 66.1786 26.0361 66.1787 33.7412C66.1787 39.165 64.9316 44.5112 62.5402 49.3396C60.1487 54.1681 56.6814 58.3407 52.4235 61.5139C46.6278 66.6306 39.3471 69.4293 31.8319 69.4292C26.0932 69.4292 20.4577 67.7963 15.5038 64.698C10.5499 61.5997 6.45594 57.1476 3.64199 51.7984H1.96802C4.66054 58.8644 9.34881 64.9292 15.4227 69.2035C21.4965 73.4778 28.6747 75.7637 36.0231 75.7638C45.7302 75.7636 55.0397 71.7785 61.9036 64.6849C68.7675 57.5913 72.6235 47.9704 72.6235 37.9387C72.6232 28.7437 69.3819 19.8637 63.5057 12.9593C57.6296 6.05489 49.521 1.59896 40.6963 0.424805Z" fill="#3ABEF9"/>
</svg>
