<svg width="90" height="90" viewBox="0 0 90 90" fill="none" xmlns="http://www.w3.org/2000/svg">
<path d="M43.0264 9.53975e-07C41.8439 0.000513346 40.6619 0.0508048 39.4834 0.150747C47.0082 1.69381 53.782 5.88531 58.65 12.0107C63.518 18.136 66.1788 25.816 66.1788 33.7412C66.1787 39.165 64.9316 44.5112 62.5402 49.3397C60.1488 54.1681 56.6814 58.3407 52.4235 61.5139C46.6279 66.6306 39.3472 69.4293 31.832 69.4293C26.0931 69.4294 20.4574 67.7965 15.5034 64.6982C10.5493 61.5999 6.45526 57.1477 3.64124 51.7985H0C1.57249 62.4316 6.7786 72.131 14.675 79.139C22.5714 86.147 32.6357 90.0001 43.0443 90C48.7626 90 54.4248 88.836 59.7078 86.5744C64.9908 84.3129 69.791 80.9982 73.8344 76.8195C77.8778 72.6409 81.0852 67.6801 83.2734 62.2204C85.4616 56.7607 86.5879 50.9091 86.5878 44.9996C86.5877 33.065 82.0001 21.6192 73.8341 13.1802C65.6681 4.74113 54.5927 9.29029e-05 43.0443 9.53975e-07C43.0383 -3.17992e-07 43.0323 -3.17992e-07 43.0264 9.53975e-07Z" fill="#050C9C"/>
<path d="M41.5825 0C40.7564 0.000131128 39.9305 0.0254017 39.1059 0.0757759C46.7124 1.54108 53.5831 5.70907 58.5276 11.8576C63.4721 18.0061 66.1788 25.7478 66.1788 33.7412C66.1788 39.165 64.9317 44.5112 62.5402 49.3396C60.1488 54.1681 56.6814 58.3407 52.4236 61.5139C46.6279 66.6306 39.3472 69.4293 31.832 69.4293C26.0931 69.4294 20.4575 67.7965 15.5034 64.6982C10.5494 61.5999 6.45529 57.1477 3.64127 51.7985H0.275391C2.14136 61.7046 7.28301 70.6317 14.8192 77.0499C22.3554 83.4682 31.817 86.978 41.5825 86.9778C52.7433 86.9778 63.4469 82.3959 71.3387 74.2401C79.2306 66.0844 83.6642 55.0229 83.6643 43.4889C83.6642 31.955 79.2306 20.8934 71.3387 12.7377C63.4469 4.58194 52.7433 6.34888e-05 41.5825 0Z" fill="#3572EF"/>
<path d="M40.6963 0.424805C47.9526 2.20694 54.4151 6.46496 59.0391 12.5106C63.6632 18.5562 66.1786 26.0361 66.1787 33.7412C66.1787 39.165 64.9316 44.5112 62.5402 49.3396C60.1487 54.1681 56.6814 58.3407 52.4235 61.5139C46.6278 66.6306 39.3471 69.4293 31.8319 69.4292C26.0932 69.4292 20.4577 67.7963 15.5038 64.698C10.5499 61.5997 6.45594 57.1476 3.64199 51.7984H1.96802C4.66054 58.8644 9.34881 64.9292 15.4227 69.2035C21.4965 73.4778 28.6747 75.7637 36.0231 75.7638C45.7302 75.7636 55.0397 71.7785 61.9036 64.6849C68.7675 57.5913 72.6235 47.9704 72.6235 37.9387C72.6232 28.7437 69.3819 19.8637 63.5057 12.9593C57.6296 6.05489 49.521 1.59896 40.6963 0.424805Z" fill="#3ABEF9"/>
</svg>
