<?xml version="1.0" encoding="UTF-8" standalone="no"?>
<svg
   xmlns:dc="http://purl.org/dc/elements/1.1/"
   xmlns:cc="http://creativecommons.org/ns#"
   xmlns:rdf="http://www.w3.org/1999/02/22-rdf-syntax-ns#"
   xmlns:svg="http://www.w3.org/2000/svg"
   xmlns="http://www.w3.org/2000/svg"
   xmlns:sodipodi="http://sodipodi.sourceforge.net/DTD/sodipodi-0.dtd"
   xmlns:inkscape="http://www.inkscape.org/namespaces/inkscape"
   width="210mm"
   height="184mm"
   viewBox="0 0 210 184"
   version="1.1"
   id="svg8"
   inkscape:export-filename="C:\Users\123ri\Downloads\centauri2.png"
   inkscape:export-xdpi="821.09991"
   inkscape:export-ydpi="821.09991"
   sodipodi:docname="centauriRAWwhite.svg"
   inkscape:version="1.0.1 (3bc2e813f5, 2020-09-07)">
  <defs
     id="defs2" />
  <sodipodi:namedview
     id="base"
     pagecolor="#ffffff"
     bordercolor="#666666"
     borderopacity="1.0"
     inkscape:pageopacity="0.0"
     inkscape:pageshadow="2"
     inkscape:zoom="0.61543465"
     inkscape:cx="-78.022007"
     inkscape:cy="449.95407"
     inkscape:document-units="mm"
     inkscape:current-layer="layer1"
     inkscape:document-rotation="0"
     showgrid="false"
     inkscape:snap-global="false"
     inkscape:snap-bbox="true"
     inkscape:snap-intersection-paths="true"
     inkscape:object-paths="true"
     inkscape:snap-midpoints="true"
     inkscape:snap-smooth-nodes="true"
     inkscape:snap-others="true"
     inkscape:snap-object-midpoints="true"
     inkscape:snap-center="true"
     inkscape:snap-text-baseline="true"
     inkscape:window-width="1920"
     inkscape:window-height="991"
     inkscape:window-x="-9"
     inkscape:window-y="-9"
     inkscape:window-maximized="1" />
  <metadata
     id="metadata5">
    <rdf:RDF>
      <cc:Work
         rdf:about="">
        <dc:format>image/svg+xml</dc:format>
        <dc:type
           rdf:resource="http://purl.org/dc/dcmitype/StillImage" />
        <dc:title />
      </cc:Work>
    </rdf:RDF>
  </metadata>
  <g
     inkscape:label="Layer 1"
     inkscape:groupmode="layer"
     id="layer1"
     style="display:inline">
    <g
       id="g972"
       style="stroke-width:0.357463"
       transform="matrix(2.7518581,0,0,2.8438791,-123.57569,-395.3684)"
       inkscape:label="g972">
      <path
         id="circle935"
         style="font-variation-settings:'wght' 700;fill:#050c9c;fill-opacity:1;stroke:none;stroke-width:0.720102;stroke-linecap:square;stroke-linejoin:bevel;paint-order:stroke fill markers"
         d="m 535.69531,582.48047 a 109.02819,109.02819 0 0 0 -8.87109,0.36523 83.00255,82.972201 0 0 1 66.8418,81.38477 83.00255,82.972201 0 0 1 -34.44141,67.28906 80.988735,83.814257 0 0 1 -51.55859,19.17774 80.988735,83.814257 0 0 1 -70.58594,-42.7168 h -9.11719 a 109.02819,109.02819 0 0 0 107.77734,92.55664 109.02819,109.02819 0 0 0 109.02735,-109.0293 109.02819,109.02819 0 0 0 -109.02735,-109.02734 109.02819,109.02819 0 0 0 -0.0449,0 z"
         transform="matrix(0.26458333,0,0,0.26458333,-57.251191,-14.929138)" />
      <path
         id="path873"
         style="font-variation-settings:'wght' 700;fill:#3572ef;fill-opacity:1;stroke:none;stroke-width:0.720102;stroke-linecap:square;stroke-linejoin:bevel;paint-order:stroke fill markers"
         d="m 532.08008,582.48047 a 105.36777,105.36777 0 0 0 -6.20117,0.18359 83.00255,82.972201 0 0 1 67.78711,81.56641 83.00255,82.972201 0 0 1 -34.44141,67.28906 80.988735,83.814257 0 0 1 -51.55859,19.17774 80.988735,83.814257 0 0 1 -70.58594,-42.7168 h -8.42774 A 105.36777,105.36777 0 0 0 532.08008,793.21484 105.36777,105.36777 0 0 0 637.44727,687.84766 105.36777,105.36777 0 0 0 532.08008,582.48047 Z"
         transform="matrix(0.26458333,0,0,0.26458333,-57.251191,-14.929138)" />
      <path
         id="circle937"
         style="font-variation-settings:'wght' 700;fill:#3abef9;fill-opacity:1;stroke:none;stroke-width:0.720102;stroke-linecap:square;stroke-linejoin:bevel;stroke-miterlimit:4;stroke-dasharray:none;paint-order:stroke fill markers"
         d="m 529.86133,583.50977 a 83.00255,82.972201 0 0 1 63.80469,80.7207 83.00255,82.972201 0 0 1 -34.44141,67.28906 80.988735,83.814257 0 0 1 -51.55859,19.17774 80.988735,83.814257 0 0 1 -70.58399,-42.7168 h -4.19141 a 91.643825,91.643825 0 0 0 85.26954,58.06445 91.643825,91.643825 0 0 0 91.64257,-91.64453 91.643825,91.643825 0 0 0 -79.9414,-90.89062 z"
         transform="matrix(0.26458333,0,0,0.26458333,-57.251191,-14.929138)" />
    </g>
    <g
       aria-label="CENTAURI
RACING"
       transform="scale(0.98368819,1.0165823)"
       id="text839"
       style="font-style:normal;font-variant:normal;font-weight:700;font-stretch:normal;font-size:42.1901px;line-height:0.72;font-family:Montserrat;-inkscape-font-specification:'Montserrat, @wght=700';font-variant-ligatures:normal;font-variant-caps:normal;font-variant-numeric:normal;font-variant-east-asian:normal;font-variation-settings:'wght' 700;text-align:center;letter-spacing:-1.48034px;text-anchor:middle;fill:#ffffff;fill-opacity:1;stroke-width:0.264583">
      <path
         d="m 16.697712,76.250727 q -3.417399,0 -6.370706,-1.096943 Q 7.4158893,74.014652 5.2641941,71.947337 3.1124989,69.880022 1.888986,67.095475 0.70766316,64.310928 0.70766316,60.97791 q 0,-3.333018 1.18132284,-6.117565 1.2235129,-2.784546 3.3752081,-4.851861 2.1938853,-2.067315 5.1050019,-3.164258 2.911117,-1.139133 6.370706,-1.139133 3.839299,0 6.919176,1.350084 3.122068,1.307893 5.231573,3.881489 l -4.387771,4.05025 q -1.518843,-1.729794 -3.375208,-2.573596 -1.856364,-0.885993 -4.050249,-0.885993 -2.067315,0 -3.79711,0.675042 -1.729794,0.675042 -2.995497,1.940745 -1.2657028,1.265703 -1.9829346,2.995497 -0.6750416,1.729794 -0.6750416,3.839299 0,2.109505 0.6750416,3.839299 0.7172318,1.729795 1.9829346,2.995498 1.265703,1.265703 2.995497,1.940744 1.729795,0.675042 3.79711,0.675042 2.193885,0 4.050249,-0.843802 1.856365,-0.885992 3.375208,-2.657976 l 4.387771,4.050249 q -2.109505,2.573597 -5.231573,3.92368 -3.079877,1.350083 -6.961366,1.350083 z"
         style="stroke-width:0.264583"
         id="path839" />
      <path
         d="m 38.295349,58.108983 h 14.218064 v 5.315953 H 38.295349 Z m 0.506281,12.15075 h 16.074429 v 5.484713 H 32.009024 V 46.211375 h 22.318563 v 5.484713 H 38.80163 Z"
         style="stroke-width:0.264583"
         id="path841" />
      <path
         d="M 58.83822,75.744446 V 46.211375 h 5.653474 L 81.916206,67.475186 H 79.173849 V 46.211375 h 6.750417 V 75.744446 H 80.312982 L 62.84628,54.480635 h 2.742357 v 21.263811 z"
         style="stroke-width:0.264583"
         id="path843" />
      <path
         d="M 97.564992,75.744446 V 51.780468 H 88.11441 v -5.569093 h 25.73596 v 5.569093 h -9.45058 v 23.963978 z"
         style="stroke-width:0.264583"
         id="path845" />
      <path
         d="m 110.68228,75.744446 13.16331,-29.533071 h 6.75042 l 13.2055,29.533071 h -7.17232 L 125.82853,49.670963 h 2.70016 l -10.84285,26.073483 z m 6.58165,-6.328515 1.81418,-5.189383 h 15.18844 l 1.85636,5.189383 z"
         style="stroke-width:0.264583"
         id="path847" />
      <path
         d="m 157.88921,76.250727 q -6.28633,0 -9.8303,-3.501778 -3.54397,-3.501779 -3.54397,-9.999054 v -16.53852 h 6.8348 v 16.285379 q 0,4.21901 1.72979,6.075375 1.7298,1.856364 4.85187,1.856364 3.12206,0 4.85186,-1.856364 1.72979,-1.856365 1.72979,-6.075375 V 46.211375 h 6.75042 v 16.53852 q 0,6.497275 -3.54397,9.999054 -3.54397,3.501778 -9.83029,3.501778 z"
         style="stroke-width:0.264583"
         id="path849" />
      <path
         d="M 176.53346,75.744446 V 46.211375 h 12.78361 q 3.96586,0 6.83479,1.307893 2.86893,1.265703 4.42996,3.670539 1.56104,2.404835 1.56104,5.737853 0,3.290828 -1.56104,5.695664 -1.56103,2.362646 -4.42996,3.628349 -2.86893,1.265703 -6.83479,1.265703 h -8.9865 l 3.03769,-2.995497 v 11.222567 z m 18.7746,0 -7.38327,-10.716286 h 7.29889 l 7.46765,10.716286 z m -11.9398,-10.463145 -3.03769,-3.206448 h 8.60678 q 3.16426,0 4.7253,-1.350083 1.56103,-1.392274 1.56103,-3.79711 0,-2.447025 -1.56103,-3.797109 -1.56104,-1.350083 -4.7253,-1.350083 h -8.60678 l 3.03769,-3.248638 z"
         style="stroke-width:0.264583"
         id="path851" />
      <path
         d="M 206.06281,75.744446 V 46.211375 h 6.83479 v 29.533071 z"
         style="stroke-width:0.264583"
         id="path853" />
      <path
         d="M 27.049707,106.12132 V 76.588249 h 12.783601 q 3.965869,0 6.834796,1.307893 2.868927,1.265703 4.429961,3.670539 1.561033,2.404836 1.561033,5.737854 0,3.290828 -1.561033,5.695664 -1.561034,2.362645 -4.429961,3.628348 -2.868927,1.265703 -6.834796,1.265703 h -8.986492 l 3.037687,-2.995497 v 11.222567 z m 18.774595,0 -7.383268,-10.716286 h 7.298888 L 53.20757,106.12132 Z M 33.884503,95.658175 30.846816,92.451727 h 8.606781 q 3.164257,0 4.725291,-1.350083 1.561034,-1.392273 1.561034,-3.797109 0,-2.447026 -1.561034,-3.797109 -1.561034,-1.350084 -4.725291,-1.350084 h -8.606781 l 3.037687,-3.248637 z"
         style="stroke-width:0.264583"
         id="path855" />
      <path
         d="M 52.697549,106.12132 65.86086,76.588249 h 6.750417 L 85.816778,106.12132 H 78.644461 L 67.843795,80.047837 h 2.700167 L 59.701106,106.12132 Z m 6.581655,-6.328515 1.814175,-5.189383 h 15.188436 l 1.856365,5.189383 z"
         style="stroke-width:0.264583"
         id="path857" />
      <path
         d="m 101.12804,106.6276 q -3.417399,0 -6.370706,-1.09694 -2.911117,-1.13913 -5.062812,-3.20645 -2.151695,-2.06731 -3.375208,-4.851861 -1.181323,-2.784546 -1.181323,-6.117564 0,-3.333018 1.181323,-6.117565 1.223513,-2.784547 3.375208,-4.851862 2.193885,-2.067315 5.105002,-3.164257 2.911117,-1.139133 6.370706,-1.139133 3.8393,0 6.91918,1.350083 3.12206,1.307893 5.23157,3.881489 l -4.38777,4.05025 q -1.51885,-1.729794 -3.37521,-2.573596 -1.85636,-0.885992 -4.05025,-0.885992 -2.067315,0 -3.797109,0.675041 -1.729794,0.675042 -2.995497,1.940745 -1.265703,1.265703 -1.982935,2.995497 -0.675041,1.729795 -0.675041,3.8393 0,2.109505 0.675041,3.839299 0.717232,1.729794 1.982935,2.995497 1.265703,1.265703 2.995497,1.940749 1.729794,0.67504 3.797109,0.67504 2.19389,0 4.05025,-0.843805 1.85636,-0.885992 3.37521,-2.657976 l 4.38777,4.050251 q -2.10951,2.57359 -5.23157,3.92368 -3.07988,1.35008 -6.96137,1.35008 z"
         style="stroke-width:0.264583"
         id="path859" />
      <path
         d="M 116.43936,106.12132 V 76.588249 h 6.83479 v 29.533071 z"
         style="stroke-width:0.264583"
         id="path861" />
      <path
         d="M 128.79733,106.12132 V 76.588249 h 5.65347 l 17.42451,21.263811 h -2.74235 V 76.588249 h 6.75041 v 29.533071 h -5.61128 l -17.4667,-21.263811 h 2.74235 v 21.263811 z"
         style="stroke-width:0.264583"
         id="path863" />
      <path
         d="m 175.66679,106.6276 q -3.50178,0 -6.45509,-1.09694 -2.91111,-1.13913 -5.105,-3.20645 -2.1517,-2.06731 -3.37521,-4.851861 -1.18132,-2.784546 -1.18132,-6.117564 0,-3.333018 1.18132,-6.117565 1.22351,-2.784547 3.4174,-4.851862 2.19389,-2.067315 5.14719,-3.164257 2.95331,-1.139133 6.49728,-1.139133 3.92368,0 7.04575,1.307893 3.16425,1.307893 5.31595,3.797109 l -4.38777,4.05025 q -1.60323,-1.687604 -3.50178,-2.489216 -1.89856,-0.843802 -4.13463,-0.843802 -2.1517,0 -3.92368,0.675041 -1.77198,0.675042 -3.07988,1.940745 -1.2657,1.265703 -1.98293,2.995497 -0.67504,1.729795 -0.67504,3.8393 0,2.067315 0.67504,3.797109 0.71723,1.729794 1.98293,3.037687 1.3079,1.265703 3.03769,1.940749 1.77198,0.67504 3.88149,0.67504 2.02512,0 3.92368,-0.63285 1.94074,-0.675046 3.75492,-2.23608 l 3.88149,4.93624 q -2.40484,1.81418 -5.61129,2.78455 -3.16425,0.97037 -6.32851,0.97037 z m 5.69566,-4.64091 V 90.890693 h 6.24414 v 11.981987 z"
         style="stroke-width:0.264583"
         id="path865" />
    </g>
    <text
       xml:space="preserve"
       style="font-style:normal;font-variant:normal;font-weight:normal;font-stretch:normal;font-size:9.86894px;line-height:1.25;font-family:Montserrat;-inkscape-font-specification:'Montserrat, @wght=286';font-variant-ligatures:normal;font-variant-caps:normal;font-variant-numeric:normal;font-variant-east-asian:normal;font-variation-settings:'wght' 286;letter-spacing:3.0865px;fill:#ffffff;fill-opacity:1;stroke:#ffffff;stroke-width:0.264583;stroke-opacity:1"
       id="text949"
       transform="matrix(0.9836799,0.00416955,-0.00403464,1.0165738,0,0)"
       x="34.679695"
       y="179.55795"><tspan
         id="tspan947"
         style="font-style:normal;font-variant:normal;font-weight:normal;font-stretch:normal;font-size:9.86894px;font-family:Montserrat;-inkscape-font-specification:'Montserrat, @wght=286';font-variant-ligatures:normal;font-variant-caps:normal;font-variant-numeric:normal;font-variant-east-asian:normal;font-variation-settings:'wght' 286;fill:#ffffff;fill-opacity:1;stroke:#ffffff;stroke-width:0.264583;stroke-opacity:1">FORMULA ONE TEAM</tspan></text>
  </g>
</svg>
