<?xml version="1.0" encoding="UTF-8" standalone="no"?>
<svg
   xmlns:dc="http://purl.org/dc/elements/1.1/"
   xmlns:cc="http://creativecommons.org/ns#"
   xmlns:rdf="http://www.w3.org/1999/02/22-rdf-syntax-ns#"
   xmlns:svg="http://www.w3.org/2000/svg"
   xmlns="http://www.w3.org/2000/svg"
   xmlns:sodipodi="http://sodipodi.sourceforge.net/DTD/sodipodi-0.dtd"
   xmlns:inkscape="http://www.inkscape.org/namespaces/inkscape"
   width="210mm"
   height="184mm"
   viewBox="0 0 210 184"
   version="1.1"
   id="svg8"
   inkscape:export-filename="C:\Users\123ri\Downloads\centauri2.png"
   inkscape:export-xdpi="821.09991"
   inkscape:export-ydpi="821.09991"
   sodipodi:docname="centaurifavicon.svg"
   inkscape:version="1.0.1 (3bc2e813f5, 2020-09-07)">
  <defs
     id="defs2" />
  <sodipodi:namedview
     id="base"
     pagecolor="#ffffff"
     bordercolor="#666666"
     borderopacity="1.0"
     inkscape:pageopacity="0.0"
     inkscape:pageshadow="2"
     inkscape:zoom="0.84066153"
     inkscape:cx="197.89552"
     inkscape:cy="387.12487"
     inkscape:document-units="mm"
     inkscape:current-layer="layer1"
     inkscape:document-rotation="0"
     showgrid="false"
     inkscape:snap-global="false"
     inkscape:snap-bbox="true"
     inkscape:snap-intersection-paths="true"
     inkscape:object-paths="true"
     inkscape:snap-midpoints="true"
     inkscape:snap-smooth-nodes="true"
     inkscape:snap-others="true"
     inkscape:snap-object-midpoints="true"
     inkscape:snap-center="true"
     inkscape:snap-text-baseline="true"
     inkscape:window-width="1920"
     inkscape:window-height="991"
     inkscape:window-x="-9"
     inkscape:window-y="-9"
     inkscape:window-maximized="1" />
  <metadata
     id="metadata5">
    <rdf:RDF>
      <cc:Work
         rdf:about="">
        <dc:format>image/svg+xml</dc:format>
        <dc:type
           rdf:resource="http://purl.org/dc/dcmitype/StillImage" />
        <dc:title></dc:title>
      </cc:Work>
    </rdf:RDF>
  </metadata>
  <g
     inkscape:label="Layer 1"
     inkscape:groupmode="layer"
     id="layer1"
     style="display:inline">
    <g
       id="g972"
       style="stroke-width:0.357463"
       transform="matrix(2.7518581,0,0,2.8438791,-123.57569,-395.3684)"
       inkscape:label="g972">
      <path
         id="circle935"
         style="font-variation-settings:'wght' 700;fill:#050c9c;fill-opacity:1;stroke:none;stroke-width:0.720102;stroke-linecap:square;stroke-linejoin:bevel;paint-order:stroke fill markers"
         d="m 535.69531,582.48047 a 109.02819,109.02819 0 0 0 -8.87109,0.36523 83.00255,82.972201 0 0 1 66.8418,81.38477 83.00255,82.972201 0 0 1 -34.44141,67.28906 80.988735,83.814257 0 0 1 -51.55859,19.17774 80.988735,83.814257 0 0 1 -70.58594,-42.7168 h -9.11719 a 109.02819,109.02819 0 0 0 107.77734,92.55664 109.02819,109.02819 0 0 0 109.02735,-109.0293 109.02819,109.02819 0 0 0 -109.02735,-109.02734 109.02819,109.02819 0 0 0 -0.0449,0 z"
         transform="matrix(0.26458333,0,0,0.26458333,-57.251191,-14.929138)" />
      <path
         id="path873"
         style="font-variation-settings:'wght' 700;fill:#3572ef;fill-opacity:1;stroke:none;stroke-width:0.720102;stroke-linecap:square;stroke-linejoin:bevel;paint-order:stroke fill markers"
         d="m 532.08008,582.48047 a 105.36777,105.36777 0 0 0 -6.20117,0.18359 83.00255,82.972201 0 0 1 67.78711,81.56641 83.00255,82.972201 0 0 1 -34.44141,67.28906 80.988735,83.814257 0 0 1 -51.55859,19.17774 80.988735,83.814257 0 0 1 -70.58594,-42.7168 h -8.42774 A 105.36777,105.36777 0 0 0 532.08008,793.21484 105.36777,105.36777 0 0 0 637.44727,687.84766 105.36777,105.36777 0 0 0 532.08008,582.48047 Z"
         transform="matrix(0.26458333,0,0,0.26458333,-57.251191,-14.929138)" />
      <path
         id="circle937"
         style="font-variation-settings:'wght' 700;fill:#3abef9;fill-opacity:1;stroke:none;stroke-width:0.720102;stroke-linecap:square;stroke-linejoin:bevel;stroke-miterlimit:4;stroke-dasharray:none;paint-order:stroke fill markers"
         d="m 529.86133,583.50977 a 83.00255,82.972201 0 0 1 63.80469,80.7207 83.00255,82.972201 0 0 1 -34.44141,67.28906 80.988735,83.814257 0 0 1 -51.55859,19.17774 80.988735,83.814257 0 0 1 -70.58399,-42.7168 h -4.19141 a 91.643825,91.643825 0 0 0 85.26954,58.06445 91.643825,91.643825 0 0 0 91.64257,-91.64453 91.643825,91.643825 0 0 0 -79.9414,-90.89062 z"
         transform="matrix(0.26458333,0,0,0.26458333,-57.251191,-14.929138)" />
    </g>
  </g>
</svg>
